<mxfile host="app.diagrams.net" agent="Mozilla/5.0 (Windows NT 10.0; Win64; x64) AppleWebKit/537.36 (KHTML, like Gecko) Chrome/129.0.0.0 Safari/537.36" version="24.7.17">
  <diagram name="Page-1" id="lOi5t4IGH5ppWjD3ILn8">
    <mxGraphModel dx="2074" dy="1132" grid="1" gridSize="10" guides="1" tooltips="1" connect="1" arrows="1" fold="1" page="1" pageScale="1" pageWidth="850" pageHeight="1100" math="0" shadow="0">
      <root>
        <mxCell id="0" />
        <mxCell id="1" parent="0" />
        <mxCell id="yT-1FrAaaAiXMkMa1nwL-12" value="&lt;font style=&quot;font-size: 20px;&quot;&gt;Portfolio&amp;nbsp;&lt;/font&gt;" style="text;html=1;align=center;verticalAlign=middle;whiteSpace=wrap;rounded=0;fontSize=14;" vertex="1" parent="1">
          <mxGeometry x="155" y="10" width="80" height="30" as="geometry" />
        </mxCell>
        <mxCell id="yT-1FrAaaAiXMkMa1nwL-13" value="&lt;font style=&quot;font-size: 20px;&quot;&gt;MonthlyReport&lt;/font&gt;" style="text;html=1;align=center;verticalAlign=middle;whiteSpace=wrap;rounded=0;" vertex="1" parent="1">
          <mxGeometry x="160" y="360" width="60" height="30" as="geometry" />
        </mxCell>
        <mxCell id="yT-1FrAaaAiXMkMa1nwL-14" value="&lt;font style=&quot;font-size: 20px;&quot;&gt;YearlyReport&lt;/font&gt;" style="text;html=1;align=center;verticalAlign=middle;whiteSpace=wrap;rounded=0;" vertex="1" parent="1">
          <mxGeometry x="160" y="750" width="60" height="30" as="geometry" />
        </mxCell>
        <mxCell id="yT-1FrAaaAiXMkMa1nwL-15" value="&lt;font style=&quot;font-size: 20px;&quot;&gt;Investment&lt;/font&gt;" style="text;html=1;align=center;verticalAlign=middle;whiteSpace=wrap;rounded=0;" vertex="1" parent="1">
          <mxGeometry x="585" y="10" width="60" height="30" as="geometry" />
        </mxCell>
        <mxCell id="yT-1FrAaaAiXMkMa1nwL-16" value="&lt;font style=&quot;font-size: 20px;&quot;&gt;Asset&lt;/font&gt;" style="text;html=1;align=center;verticalAlign=middle;whiteSpace=wrap;rounded=0;" vertex="1" parent="1">
          <mxGeometry x="585" y="360" width="60" height="30" as="geometry" />
        </mxCell>
        <mxCell id="yT-1FrAaaAiXMkMa1nwL-47" value="" style="shape=table;startSize=0;container=1;collapsible=0;childLayout=tableLayout;" vertex="1" parent="1">
          <mxGeometry x="465" y="60" width="300" height="200" as="geometry" />
        </mxCell>
        <mxCell id="yT-1FrAaaAiXMkMa1nwL-48" value="" style="shape=tableRow;horizontal=0;startSize=0;swimlaneHead=0;swimlaneBody=0;strokeColor=inherit;top=0;left=0;bottom=0;right=0;collapsible=0;dropTarget=0;fillColor=none;points=[[0,0.5],[1,0.5]];portConstraint=eastwest;" vertex="1" parent="yT-1FrAaaAiXMkMa1nwL-47">
          <mxGeometry width="300" height="40" as="geometry" />
        </mxCell>
        <mxCell id="yT-1FrAaaAiXMkMa1nwL-49" value="INVESTMENTID" style="shape=partialRectangle;html=1;whiteSpace=wrap;connectable=0;strokeColor=inherit;overflow=hidden;fillColor=none;top=0;left=0;bottom=0;right=0;pointerEvents=1;" vertex="1" parent="yT-1FrAaaAiXMkMa1nwL-48">
          <mxGeometry width="150" height="40" as="geometry">
            <mxRectangle width="150" height="40" as="alternateBounds" />
          </mxGeometry>
        </mxCell>
        <mxCell id="yT-1FrAaaAiXMkMa1nwL-50" value="int" style="shape=partialRectangle;html=1;whiteSpace=wrap;connectable=0;strokeColor=inherit;overflow=hidden;fillColor=none;top=0;left=0;bottom=0;right=0;pointerEvents=1;" vertex="1" parent="yT-1FrAaaAiXMkMa1nwL-48">
          <mxGeometry x="150" width="150" height="40" as="geometry">
            <mxRectangle width="150" height="40" as="alternateBounds" />
          </mxGeometry>
        </mxCell>
        <mxCell id="yT-1FrAaaAiXMkMa1nwL-51" value="" style="shape=tableRow;horizontal=0;startSize=0;swimlaneHead=0;swimlaneBody=0;strokeColor=inherit;top=0;left=0;bottom=0;right=0;collapsible=0;dropTarget=0;fillColor=none;points=[[0,0.5],[1,0.5]];portConstraint=eastwest;" vertex="1" parent="yT-1FrAaaAiXMkMa1nwL-47">
          <mxGeometry y="40" width="300" height="40" as="geometry" />
        </mxCell>
        <mxCell id="yT-1FrAaaAiXMkMa1nwL-52" value="INVESTMENTTYPE" style="shape=partialRectangle;html=1;whiteSpace=wrap;connectable=0;strokeColor=inherit;overflow=hidden;fillColor=none;top=0;left=0;bottom=0;right=0;pointerEvents=1;" vertex="1" parent="yT-1FrAaaAiXMkMa1nwL-51">
          <mxGeometry width="150" height="40" as="geometry">
            <mxRectangle width="150" height="40" as="alternateBounds" />
          </mxGeometry>
        </mxCell>
        <mxCell id="yT-1FrAaaAiXMkMa1nwL-53" value="string(255)" style="shape=partialRectangle;html=1;whiteSpace=wrap;connectable=0;strokeColor=inherit;overflow=hidden;fillColor=none;top=0;left=0;bottom=0;right=0;pointerEvents=1;" vertex="1" parent="yT-1FrAaaAiXMkMa1nwL-51">
          <mxGeometry x="150" width="150" height="40" as="geometry">
            <mxRectangle width="150" height="40" as="alternateBounds" />
          </mxGeometry>
        </mxCell>
        <mxCell id="yT-1FrAaaAiXMkMa1nwL-54" value="" style="shape=tableRow;horizontal=0;startSize=0;swimlaneHead=0;swimlaneBody=0;strokeColor=inherit;top=0;left=0;bottom=0;right=0;collapsible=0;dropTarget=0;fillColor=none;points=[[0,0.5],[1,0.5]];portConstraint=eastwest;" vertex="1" parent="yT-1FrAaaAiXMkMa1nwL-47">
          <mxGeometry y="80" width="300" height="40" as="geometry" />
        </mxCell>
        <mxCell id="yT-1FrAaaAiXMkMa1nwL-55" value="INITIALAMOUNT" style="shape=partialRectangle;html=1;whiteSpace=wrap;connectable=0;strokeColor=inherit;overflow=hidden;fillColor=none;top=0;left=0;bottom=0;right=0;pointerEvents=1;" vertex="1" parent="yT-1FrAaaAiXMkMa1nwL-54">
          <mxGeometry width="150" height="40" as="geometry">
            <mxRectangle width="150" height="40" as="alternateBounds" />
          </mxGeometry>
        </mxCell>
        <mxCell id="yT-1FrAaaAiXMkMa1nwL-56" value="decimal" style="shape=partialRectangle;html=1;whiteSpace=wrap;connectable=0;strokeColor=inherit;overflow=hidden;fillColor=none;top=0;left=0;bottom=0;right=0;pointerEvents=1;" vertex="1" parent="yT-1FrAaaAiXMkMa1nwL-54">
          <mxGeometry x="150" width="150" height="40" as="geometry">
            <mxRectangle width="150" height="40" as="alternateBounds" />
          </mxGeometry>
        </mxCell>
        <mxCell id="yT-1FrAaaAiXMkMa1nwL-57" value="" style="shape=tableRow;horizontal=0;startSize=0;swimlaneHead=0;swimlaneBody=0;strokeColor=inherit;top=0;left=0;bottom=0;right=0;collapsible=0;dropTarget=0;fillColor=none;points=[[0,0.5],[1,0.5]];portConstraint=eastwest;" vertex="1" parent="yT-1FrAaaAiXMkMa1nwL-47">
          <mxGeometry y="120" width="300" height="40" as="geometry" />
        </mxCell>
        <mxCell id="yT-1FrAaaAiXMkMa1nwL-58" value="CURRENTAMOUNT" style="shape=partialRectangle;html=1;whiteSpace=wrap;connectable=0;strokeColor=inherit;overflow=hidden;fillColor=none;top=0;left=0;bottom=0;right=0;pointerEvents=1;" vertex="1" parent="yT-1FrAaaAiXMkMa1nwL-57">
          <mxGeometry width="150" height="40" as="geometry">
            <mxRectangle width="150" height="40" as="alternateBounds" />
          </mxGeometry>
        </mxCell>
        <mxCell id="yT-1FrAaaAiXMkMa1nwL-59" value="decimal" style="shape=partialRectangle;html=1;whiteSpace=wrap;connectable=0;strokeColor=inherit;overflow=hidden;fillColor=none;top=0;left=0;bottom=0;right=0;pointerEvents=1;" vertex="1" parent="yT-1FrAaaAiXMkMa1nwL-57">
          <mxGeometry x="150" width="150" height="40" as="geometry">
            <mxRectangle width="150" height="40" as="alternateBounds" />
          </mxGeometry>
        </mxCell>
        <mxCell id="yT-1FrAaaAiXMkMa1nwL-60" value="" style="shape=tableRow;horizontal=0;startSize=0;swimlaneHead=0;swimlaneBody=0;strokeColor=inherit;top=0;left=0;bottom=0;right=0;collapsible=0;dropTarget=0;fillColor=none;points=[[0,0.5],[1,0.5]];portConstraint=eastwest;" vertex="1" parent="yT-1FrAaaAiXMkMa1nwL-47">
          <mxGeometry y="160" width="300" height="40" as="geometry" />
        </mxCell>
        <mxCell id="yT-1FrAaaAiXMkMa1nwL-61" value="INVESTMENTDATE" style="shape=partialRectangle;html=1;whiteSpace=wrap;connectable=0;strokeColor=inherit;overflow=hidden;fillColor=none;top=0;left=0;bottom=0;right=0;pointerEvents=1;" vertex="1" parent="yT-1FrAaaAiXMkMa1nwL-60">
          <mxGeometry width="150" height="40" as="geometry">
            <mxRectangle width="150" height="40" as="alternateBounds" />
          </mxGeometry>
        </mxCell>
        <mxCell id="yT-1FrAaaAiXMkMa1nwL-62" value="DateTime" style="shape=partialRectangle;html=1;whiteSpace=wrap;connectable=0;strokeColor=inherit;overflow=hidden;fillColor=none;top=0;left=0;bottom=0;right=0;pointerEvents=1;" vertex="1" parent="yT-1FrAaaAiXMkMa1nwL-60">
          <mxGeometry x="150" width="150" height="40" as="geometry">
            <mxRectangle width="150" height="40" as="alternateBounds" />
          </mxGeometry>
        </mxCell>
        <mxCell id="yT-1FrAaaAiXMkMa1nwL-63" value="" style="shape=table;startSize=0;container=1;collapsible=0;childLayout=tableLayout;" vertex="1" parent="1">
          <mxGeometry x="510" y="440" width="205" height="160" as="geometry" />
        </mxCell>
        <mxCell id="yT-1FrAaaAiXMkMa1nwL-64" value="" style="shape=tableRow;horizontal=0;startSize=0;swimlaneHead=0;swimlaneBody=0;strokeColor=inherit;top=0;left=0;bottom=0;right=0;collapsible=0;dropTarget=0;fillColor=none;points=[[0,0.5],[1,0.5]];portConstraint=eastwest;" vertex="1" parent="yT-1FrAaaAiXMkMa1nwL-63">
          <mxGeometry width="205" height="40" as="geometry" />
        </mxCell>
        <mxCell id="yT-1FrAaaAiXMkMa1nwL-65" value="ASSETID" style="shape=partialRectangle;html=1;whiteSpace=wrap;connectable=0;strokeColor=inherit;overflow=hidden;fillColor=none;top=0;left=0;bottom=0;right=0;pointerEvents=1;" vertex="1" parent="yT-1FrAaaAiXMkMa1nwL-64">
          <mxGeometry width="103" height="40" as="geometry">
            <mxRectangle width="103" height="40" as="alternateBounds" />
          </mxGeometry>
        </mxCell>
        <mxCell id="yT-1FrAaaAiXMkMa1nwL-66" value="int" style="shape=partialRectangle;html=1;whiteSpace=wrap;connectable=0;strokeColor=inherit;overflow=hidden;fillColor=none;top=0;left=0;bottom=0;right=0;pointerEvents=1;" vertex="1" parent="yT-1FrAaaAiXMkMa1nwL-64">
          <mxGeometry x="103" width="102" height="40" as="geometry">
            <mxRectangle width="102" height="40" as="alternateBounds" />
          </mxGeometry>
        </mxCell>
        <mxCell id="yT-1FrAaaAiXMkMa1nwL-67" value="" style="shape=tableRow;horizontal=0;startSize=0;swimlaneHead=0;swimlaneBody=0;strokeColor=inherit;top=0;left=0;bottom=0;right=0;collapsible=0;dropTarget=0;fillColor=none;points=[[0,0.5],[1,0.5]];portConstraint=eastwest;" vertex="1" parent="yT-1FrAaaAiXMkMa1nwL-63">
          <mxGeometry y="40" width="205" height="40" as="geometry" />
        </mxCell>
        <mxCell id="yT-1FrAaaAiXMkMa1nwL-68" value="ASSETNAME" style="shape=partialRectangle;html=1;whiteSpace=wrap;connectable=0;strokeColor=inherit;overflow=hidden;fillColor=none;top=0;left=0;bottom=0;right=0;pointerEvents=1;" vertex="1" parent="yT-1FrAaaAiXMkMa1nwL-67">
          <mxGeometry width="103" height="40" as="geometry">
            <mxRectangle width="103" height="40" as="alternateBounds" />
          </mxGeometry>
        </mxCell>
        <mxCell id="yT-1FrAaaAiXMkMa1nwL-69" value="string(255)" style="shape=partialRectangle;html=1;whiteSpace=wrap;connectable=0;strokeColor=inherit;overflow=hidden;fillColor=none;top=0;left=0;bottom=0;right=0;pointerEvents=1;" vertex="1" parent="yT-1FrAaaAiXMkMa1nwL-67">
          <mxGeometry x="103" width="102" height="40" as="geometry">
            <mxRectangle width="102" height="40" as="alternateBounds" />
          </mxGeometry>
        </mxCell>
        <mxCell id="yT-1FrAaaAiXMkMa1nwL-70" value="" style="shape=tableRow;horizontal=0;startSize=0;swimlaneHead=0;swimlaneBody=0;strokeColor=inherit;top=0;left=0;bottom=0;right=0;collapsible=0;dropTarget=0;fillColor=none;points=[[0,0.5],[1,0.5]];portConstraint=eastwest;" vertex="1" parent="yT-1FrAaaAiXMkMa1nwL-63">
          <mxGeometry y="80" width="205" height="40" as="geometry" />
        </mxCell>
        <mxCell id="yT-1FrAaaAiXMkMa1nwL-71" value="ASSETVALUE" style="shape=partialRectangle;html=1;whiteSpace=wrap;connectable=0;strokeColor=inherit;overflow=hidden;fillColor=none;top=0;left=0;bottom=0;right=0;pointerEvents=1;" vertex="1" parent="yT-1FrAaaAiXMkMa1nwL-70">
          <mxGeometry width="103" height="40" as="geometry">
            <mxRectangle width="103" height="40" as="alternateBounds" />
          </mxGeometry>
        </mxCell>
        <mxCell id="yT-1FrAaaAiXMkMa1nwL-72" value="decimal" style="shape=partialRectangle;html=1;whiteSpace=wrap;connectable=0;strokeColor=inherit;overflow=hidden;fillColor=none;top=0;left=0;bottom=0;right=0;pointerEvents=1;" vertex="1" parent="yT-1FrAaaAiXMkMa1nwL-70">
          <mxGeometry x="103" width="102" height="40" as="geometry">
            <mxRectangle width="102" height="40" as="alternateBounds" />
          </mxGeometry>
        </mxCell>
        <mxCell id="yT-1FrAaaAiXMkMa1nwL-73" value="" style="shape=tableRow;horizontal=0;startSize=0;swimlaneHead=0;swimlaneBody=0;strokeColor=inherit;top=0;left=0;bottom=0;right=0;collapsible=0;dropTarget=0;fillColor=none;points=[[0,0.5],[1,0.5]];portConstraint=eastwest;" vertex="1" parent="yT-1FrAaaAiXMkMa1nwL-63">
          <mxGeometry y="120" width="205" height="40" as="geometry" />
        </mxCell>
        <mxCell id="yT-1FrAaaAiXMkMa1nwL-74" value="QUANTITY" style="shape=partialRectangle;html=1;whiteSpace=wrap;connectable=0;strokeColor=inherit;overflow=hidden;fillColor=none;top=0;left=0;bottom=0;right=0;pointerEvents=1;" vertex="1" parent="yT-1FrAaaAiXMkMa1nwL-73">
          <mxGeometry width="103" height="40" as="geometry">
            <mxRectangle width="103" height="40" as="alternateBounds" />
          </mxGeometry>
        </mxCell>
        <mxCell id="yT-1FrAaaAiXMkMa1nwL-75" value="int" style="shape=partialRectangle;html=1;whiteSpace=wrap;connectable=0;strokeColor=inherit;overflow=hidden;fillColor=none;top=0;left=0;bottom=0;right=0;pointerEvents=1;" vertex="1" parent="yT-1FrAaaAiXMkMa1nwL-73">
          <mxGeometry x="103" width="102" height="40" as="geometry">
            <mxRectangle width="102" height="40" as="alternateBounds" />
          </mxGeometry>
        </mxCell>
        <mxCell id="yT-1FrAaaAiXMkMa1nwL-76" value="" style="shape=table;startSize=0;container=1;collapsible=0;childLayout=tableLayout;" vertex="1" parent="1">
          <mxGeometry x="50" y="60" width="300" height="240" as="geometry" />
        </mxCell>
        <mxCell id="yT-1FrAaaAiXMkMa1nwL-77" value="" style="shape=tableRow;horizontal=0;startSize=0;swimlaneHead=0;swimlaneBody=0;strokeColor=inherit;top=0;left=0;bottom=0;right=0;collapsible=0;dropTarget=0;fillColor=none;points=[[0,0.5],[1,0.5]];portConstraint=eastwest;" vertex="1" parent="yT-1FrAaaAiXMkMa1nwL-76">
          <mxGeometry width="300" height="40" as="geometry" />
        </mxCell>
        <mxCell id="yT-1FrAaaAiXMkMa1nwL-78" value="PORTFOLIOID" style="shape=partialRectangle;html=1;whiteSpace=wrap;connectable=0;strokeColor=inherit;overflow=hidden;fillColor=none;top=0;left=0;bottom=0;right=0;pointerEvents=1;" vertex="1" parent="yT-1FrAaaAiXMkMa1nwL-77">
          <mxGeometry width="150" height="40" as="geometry">
            <mxRectangle width="150" height="40" as="alternateBounds" />
          </mxGeometry>
        </mxCell>
        <mxCell id="yT-1FrAaaAiXMkMa1nwL-79" value="int" style="shape=partialRectangle;html=1;whiteSpace=wrap;connectable=0;strokeColor=inherit;overflow=hidden;fillColor=none;top=0;left=0;bottom=0;right=0;pointerEvents=1;" vertex="1" parent="yT-1FrAaaAiXMkMa1nwL-77">
          <mxGeometry x="150" width="150" height="40" as="geometry">
            <mxRectangle width="150" height="40" as="alternateBounds" />
          </mxGeometry>
        </mxCell>
        <mxCell id="yT-1FrAaaAiXMkMa1nwL-80" value="" style="shape=tableRow;horizontal=0;startSize=0;swimlaneHead=0;swimlaneBody=0;strokeColor=inherit;top=0;left=0;bottom=0;right=0;collapsible=0;dropTarget=0;fillColor=none;points=[[0,0.5],[1,0.5]];portConstraint=eastwest;" vertex="1" parent="yT-1FrAaaAiXMkMa1nwL-76">
          <mxGeometry y="40" width="300" height="40" as="geometry" />
        </mxCell>
        <mxCell id="yT-1FrAaaAiXMkMa1nwL-81" value="PORTFOLIONAME" style="shape=partialRectangle;html=1;whiteSpace=wrap;connectable=0;strokeColor=inherit;overflow=hidden;fillColor=none;top=0;left=0;bottom=0;right=0;pointerEvents=1;" vertex="1" parent="yT-1FrAaaAiXMkMa1nwL-80">
          <mxGeometry width="150" height="40" as="geometry">
            <mxRectangle width="150" height="40" as="alternateBounds" />
          </mxGeometry>
        </mxCell>
        <mxCell id="yT-1FrAaaAiXMkMa1nwL-82" value="string(255)" style="shape=partialRectangle;html=1;whiteSpace=wrap;connectable=0;strokeColor=inherit;overflow=hidden;fillColor=none;top=0;left=0;bottom=0;right=0;pointerEvents=1;" vertex="1" parent="yT-1FrAaaAiXMkMa1nwL-80">
          <mxGeometry x="150" width="150" height="40" as="geometry">
            <mxRectangle width="150" height="40" as="alternateBounds" />
          </mxGeometry>
        </mxCell>
        <mxCell id="yT-1FrAaaAiXMkMa1nwL-83" value="" style="shape=tableRow;horizontal=0;startSize=0;swimlaneHead=0;swimlaneBody=0;strokeColor=inherit;top=0;left=0;bottom=0;right=0;collapsible=0;dropTarget=0;fillColor=none;points=[[0,0.5],[1,0.5]];portConstraint=eastwest;" vertex="1" parent="yT-1FrAaaAiXMkMa1nwL-76">
          <mxGeometry y="80" width="300" height="40" as="geometry" />
        </mxCell>
        <mxCell id="yT-1FrAaaAiXMkMa1nwL-84" value="TOTALVALUE" style="shape=partialRectangle;html=1;whiteSpace=wrap;connectable=0;strokeColor=inherit;overflow=hidden;fillColor=none;top=0;left=0;bottom=0;right=0;pointerEvents=1;" vertex="1" parent="yT-1FrAaaAiXMkMa1nwL-83">
          <mxGeometry width="150" height="40" as="geometry">
            <mxRectangle width="150" height="40" as="alternateBounds" />
          </mxGeometry>
        </mxCell>
        <mxCell id="yT-1FrAaaAiXMkMa1nwL-85" value="decimal" style="shape=partialRectangle;html=1;whiteSpace=wrap;connectable=0;strokeColor=inherit;overflow=hidden;fillColor=none;top=0;left=0;bottom=0;right=0;pointerEvents=1;" vertex="1" parent="yT-1FrAaaAiXMkMa1nwL-83">
          <mxGeometry x="150" width="150" height="40" as="geometry">
            <mxRectangle width="150" height="40" as="alternateBounds" />
          </mxGeometry>
        </mxCell>
        <mxCell id="yT-1FrAaaAiXMkMa1nwL-86" value="" style="shape=tableRow;horizontal=0;startSize=0;swimlaneHead=0;swimlaneBody=0;strokeColor=inherit;top=0;left=0;bottom=0;right=0;collapsible=0;dropTarget=0;fillColor=none;points=[[0,0.5],[1,0.5]];portConstraint=eastwest;" vertex="1" parent="yT-1FrAaaAiXMkMa1nwL-76">
          <mxGeometry y="120" width="300" height="40" as="geometry" />
        </mxCell>
        <mxCell id="yT-1FrAaaAiXMkMa1nwL-87" value="GROWTHRATE" style="shape=partialRectangle;html=1;whiteSpace=wrap;connectable=0;strokeColor=inherit;overflow=hidden;fillColor=none;top=0;left=0;bottom=0;right=0;pointerEvents=1;" vertex="1" parent="yT-1FrAaaAiXMkMa1nwL-86">
          <mxGeometry width="150" height="40" as="geometry">
            <mxRectangle width="150" height="40" as="alternateBounds" />
          </mxGeometry>
        </mxCell>
        <mxCell id="yT-1FrAaaAiXMkMa1nwL-88" value="decimal" style="shape=partialRectangle;html=1;whiteSpace=wrap;connectable=0;strokeColor=inherit;overflow=hidden;fillColor=none;top=0;left=0;bottom=0;right=0;pointerEvents=1;" vertex="1" parent="yT-1FrAaaAiXMkMa1nwL-86">
          <mxGeometry x="150" width="150" height="40" as="geometry">
            <mxRectangle width="150" height="40" as="alternateBounds" />
          </mxGeometry>
        </mxCell>
        <mxCell id="yT-1FrAaaAiXMkMa1nwL-89" value="" style="shape=tableRow;horizontal=0;startSize=0;swimlaneHead=0;swimlaneBody=0;strokeColor=inherit;top=0;left=0;bottom=0;right=0;collapsible=0;dropTarget=0;fillColor=none;points=[[0,0.5],[1,0.5]];portConstraint=eastwest;" vertex="1" parent="yT-1FrAaaAiXMkMa1nwL-76">
          <mxGeometry y="160" width="300" height="40" as="geometry" />
        </mxCell>
        <mxCell id="yT-1FrAaaAiXMkMa1nwL-90" value="DATE" style="shape=partialRectangle;html=1;whiteSpace=wrap;connectable=0;strokeColor=inherit;overflow=hidden;fillColor=none;top=0;left=0;bottom=0;right=0;pointerEvents=1;" vertex="1" parent="yT-1FrAaaAiXMkMa1nwL-89">
          <mxGeometry width="150" height="40" as="geometry">
            <mxRectangle width="150" height="40" as="alternateBounds" />
          </mxGeometry>
        </mxCell>
        <mxCell id="yT-1FrAaaAiXMkMa1nwL-91" value="DateTime" style="shape=partialRectangle;html=1;whiteSpace=wrap;connectable=0;strokeColor=inherit;overflow=hidden;fillColor=none;top=0;left=0;bottom=0;right=0;pointerEvents=1;" vertex="1" parent="yT-1FrAaaAiXMkMa1nwL-89">
          <mxGeometry x="150" width="150" height="40" as="geometry">
            <mxRectangle width="150" height="40" as="alternateBounds" />
          </mxGeometry>
        </mxCell>
        <mxCell id="yT-1FrAaaAiXMkMa1nwL-134" style="shape=tableRow;horizontal=0;startSize=0;swimlaneHead=0;swimlaneBody=0;strokeColor=inherit;top=0;left=0;bottom=0;right=0;collapsible=0;dropTarget=0;fillColor=none;points=[[0,0.5],[1,0.5]];portConstraint=eastwest;" vertex="1" parent="yT-1FrAaaAiXMkMa1nwL-76">
          <mxGeometry y="200" width="300" height="40" as="geometry" />
        </mxCell>
        <mxCell id="yT-1FrAaaAiXMkMa1nwL-135" value="TOTALINVESTMENT" style="shape=partialRectangle;html=1;whiteSpace=wrap;connectable=0;strokeColor=inherit;overflow=hidden;fillColor=none;top=0;left=0;bottom=0;right=0;pointerEvents=1;" vertex="1" parent="yT-1FrAaaAiXMkMa1nwL-134">
          <mxGeometry width="150" height="40" as="geometry">
            <mxRectangle width="150" height="40" as="alternateBounds" />
          </mxGeometry>
        </mxCell>
        <mxCell id="yT-1FrAaaAiXMkMa1nwL-136" value="int[]" style="shape=partialRectangle;html=1;whiteSpace=wrap;connectable=0;strokeColor=inherit;overflow=hidden;fillColor=none;top=0;left=0;bottom=0;right=0;pointerEvents=1;" vertex="1" parent="yT-1FrAaaAiXMkMa1nwL-134">
          <mxGeometry x="150" width="150" height="40" as="geometry">
            <mxRectangle width="150" height="40" as="alternateBounds" />
          </mxGeometry>
        </mxCell>
        <mxCell id="yT-1FrAaaAiXMkMa1nwL-92" value="" style="shape=table;startSize=0;container=1;collapsible=0;childLayout=tableLayout;" vertex="1" parent="1">
          <mxGeometry x="45" y="420" width="300" height="200" as="geometry" />
        </mxCell>
        <mxCell id="yT-1FrAaaAiXMkMa1nwL-93" value="" style="shape=tableRow;horizontal=0;startSize=0;swimlaneHead=0;swimlaneBody=0;strokeColor=inherit;top=0;left=0;bottom=0;right=0;collapsible=0;dropTarget=0;fillColor=none;points=[[0,0.5],[1,0.5]];portConstraint=eastwest;" vertex="1" parent="yT-1FrAaaAiXMkMa1nwL-92">
          <mxGeometry width="300" height="40" as="geometry" />
        </mxCell>
        <mxCell id="yT-1FrAaaAiXMkMa1nwL-94" value="REPORTID" style="shape=partialRectangle;html=1;whiteSpace=wrap;connectable=0;strokeColor=inherit;overflow=hidden;fillColor=none;top=0;left=0;bottom=0;right=0;pointerEvents=1;" vertex="1" parent="yT-1FrAaaAiXMkMa1nwL-93">
          <mxGeometry width="150" height="40" as="geometry">
            <mxRectangle width="150" height="40" as="alternateBounds" />
          </mxGeometry>
        </mxCell>
        <mxCell id="yT-1FrAaaAiXMkMa1nwL-95" value="int" style="shape=partialRectangle;html=1;whiteSpace=wrap;connectable=0;strokeColor=inherit;overflow=hidden;fillColor=none;top=0;left=0;bottom=0;right=0;pointerEvents=1;" vertex="1" parent="yT-1FrAaaAiXMkMa1nwL-93">
          <mxGeometry x="150" width="150" height="40" as="geometry">
            <mxRectangle width="150" height="40" as="alternateBounds" />
          </mxGeometry>
        </mxCell>
        <mxCell id="yT-1FrAaaAiXMkMa1nwL-96" value="" style="shape=tableRow;horizontal=0;startSize=0;swimlaneHead=0;swimlaneBody=0;strokeColor=inherit;top=0;left=0;bottom=0;right=0;collapsible=0;dropTarget=0;fillColor=none;points=[[0,0.5],[1,0.5]];portConstraint=eastwest;" vertex="1" parent="yT-1FrAaaAiXMkMa1nwL-92">
          <mxGeometry y="40" width="300" height="40" as="geometry" />
        </mxCell>
        <mxCell id="yT-1FrAaaAiXMkMa1nwL-97" value="MONTH" style="shape=partialRectangle;html=1;whiteSpace=wrap;connectable=0;strokeColor=inherit;overflow=hidden;fillColor=none;top=0;left=0;bottom=0;right=0;pointerEvents=1;" vertex="1" parent="yT-1FrAaaAiXMkMa1nwL-96">
          <mxGeometry width="150" height="40" as="geometry">
            <mxRectangle width="150" height="40" as="alternateBounds" />
          </mxGeometry>
        </mxCell>
        <mxCell id="yT-1FrAaaAiXMkMa1nwL-98" value="DateTime" style="shape=partialRectangle;html=1;whiteSpace=wrap;connectable=0;strokeColor=inherit;overflow=hidden;fillColor=none;top=0;left=0;bottom=0;right=0;pointerEvents=1;" vertex="1" parent="yT-1FrAaaAiXMkMa1nwL-96">
          <mxGeometry x="150" width="150" height="40" as="geometry">
            <mxRectangle width="150" height="40" as="alternateBounds" />
          </mxGeometry>
        </mxCell>
        <mxCell id="yT-1FrAaaAiXMkMa1nwL-99" value="" style="shape=tableRow;horizontal=0;startSize=0;swimlaneHead=0;swimlaneBody=0;strokeColor=inherit;top=0;left=0;bottom=0;right=0;collapsible=0;dropTarget=0;fillColor=none;points=[[0,0.5],[1,0.5]];portConstraint=eastwest;" vertex="1" parent="yT-1FrAaaAiXMkMa1nwL-92">
          <mxGeometry y="80" width="300" height="40" as="geometry" />
        </mxCell>
        <mxCell id="yT-1FrAaaAiXMkMa1nwL-100" value="TOTALINVESTMENT" style="shape=partialRectangle;html=1;whiteSpace=wrap;connectable=0;strokeColor=inherit;overflow=hidden;fillColor=none;top=0;left=0;bottom=0;right=0;pointerEvents=1;" vertex="1" parent="yT-1FrAaaAiXMkMa1nwL-99">
          <mxGeometry width="150" height="40" as="geometry">
            <mxRectangle width="150" height="40" as="alternateBounds" />
          </mxGeometry>
        </mxCell>
        <mxCell id="yT-1FrAaaAiXMkMa1nwL-101" value="decimal" style="shape=partialRectangle;html=1;whiteSpace=wrap;connectable=0;strokeColor=inherit;overflow=hidden;fillColor=none;top=0;left=0;bottom=0;right=0;pointerEvents=1;" vertex="1" parent="yT-1FrAaaAiXMkMa1nwL-99">
          <mxGeometry x="150" width="150" height="40" as="geometry">
            <mxRectangle width="150" height="40" as="alternateBounds" />
          </mxGeometry>
        </mxCell>
        <mxCell id="yT-1FrAaaAiXMkMa1nwL-102" value="" style="shape=tableRow;horizontal=0;startSize=0;swimlaneHead=0;swimlaneBody=0;strokeColor=inherit;top=0;left=0;bottom=0;right=0;collapsible=0;dropTarget=0;fillColor=none;points=[[0,0.5],[1,0.5]];portConstraint=eastwest;" vertex="1" parent="yT-1FrAaaAiXMkMa1nwL-92">
          <mxGeometry y="120" width="300" height="40" as="geometry" />
        </mxCell>
        <mxCell id="yT-1FrAaaAiXMkMa1nwL-103" value="PORTFOLIOVALUE" style="shape=partialRectangle;html=1;whiteSpace=wrap;connectable=0;strokeColor=inherit;overflow=hidden;fillColor=none;top=0;left=0;bottom=0;right=0;pointerEvents=1;" vertex="1" parent="yT-1FrAaaAiXMkMa1nwL-102">
          <mxGeometry width="150" height="40" as="geometry">
            <mxRectangle width="150" height="40" as="alternateBounds" />
          </mxGeometry>
        </mxCell>
        <mxCell id="yT-1FrAaaAiXMkMa1nwL-104" value="decimal" style="shape=partialRectangle;html=1;whiteSpace=wrap;connectable=0;strokeColor=inherit;overflow=hidden;fillColor=none;top=0;left=0;bottom=0;right=0;pointerEvents=1;" vertex="1" parent="yT-1FrAaaAiXMkMa1nwL-102">
          <mxGeometry x="150" width="150" height="40" as="geometry">
            <mxRectangle width="150" height="40" as="alternateBounds" />
          </mxGeometry>
        </mxCell>
        <mxCell id="yT-1FrAaaAiXMkMa1nwL-105" value="" style="shape=tableRow;horizontal=0;startSize=0;swimlaneHead=0;swimlaneBody=0;strokeColor=inherit;top=0;left=0;bottom=0;right=0;collapsible=0;dropTarget=0;fillColor=none;points=[[0,0.5],[1,0.5]];portConstraint=eastwest;" vertex="1" parent="yT-1FrAaaAiXMkMa1nwL-92">
          <mxGeometry y="160" width="300" height="40" as="geometry" />
        </mxCell>
        <mxCell id="yT-1FrAaaAiXMkMa1nwL-106" value="GROWTHCOMPARISON" style="shape=partialRectangle;html=1;whiteSpace=wrap;connectable=0;strokeColor=inherit;overflow=hidden;fillColor=none;top=0;left=0;bottom=0;right=0;pointerEvents=1;" vertex="1" parent="yT-1FrAaaAiXMkMa1nwL-105">
          <mxGeometry width="150" height="40" as="geometry">
            <mxRectangle width="150" height="40" as="alternateBounds" />
          </mxGeometry>
        </mxCell>
        <mxCell id="yT-1FrAaaAiXMkMa1nwL-107" value="decimal" style="shape=partialRectangle;html=1;whiteSpace=wrap;connectable=0;strokeColor=inherit;overflow=hidden;fillColor=none;top=0;left=0;bottom=0;right=0;pointerEvents=1;" vertex="1" parent="yT-1FrAaaAiXMkMa1nwL-105">
          <mxGeometry x="150" width="150" height="40" as="geometry">
            <mxRectangle width="150" height="40" as="alternateBounds" />
          </mxGeometry>
        </mxCell>
        <mxCell id="yT-1FrAaaAiXMkMa1nwL-124" value="" style="shape=table;startSize=0;container=1;collapsible=0;childLayout=tableLayout;" vertex="1" parent="1">
          <mxGeometry x="60" y="800" width="285" height="170" as="geometry" />
        </mxCell>
        <mxCell id="yT-1FrAaaAiXMkMa1nwL-125" value="" style="shape=tableRow;horizontal=0;startSize=0;swimlaneHead=0;swimlaneBody=0;strokeColor=inherit;top=0;left=0;bottom=0;right=0;collapsible=0;dropTarget=0;fillColor=none;points=[[0,0.5],[1,0.5]];portConstraint=eastwest;" vertex="1" parent="yT-1FrAaaAiXMkMa1nwL-124">
          <mxGeometry width="285" height="57" as="geometry" />
        </mxCell>
        <mxCell id="yT-1FrAaaAiXMkMa1nwL-126" value="YEAR" style="shape=partialRectangle;html=1;whiteSpace=wrap;connectable=0;strokeColor=inherit;overflow=hidden;fillColor=none;top=0;left=0;bottom=0;right=0;pointerEvents=1;" vertex="1" parent="yT-1FrAaaAiXMkMa1nwL-125">
          <mxGeometry width="143" height="57" as="geometry">
            <mxRectangle width="143" height="57" as="alternateBounds" />
          </mxGeometry>
        </mxCell>
        <mxCell id="yT-1FrAaaAiXMkMa1nwL-127" value="int" style="shape=partialRectangle;html=1;whiteSpace=wrap;connectable=0;strokeColor=inherit;overflow=hidden;fillColor=none;top=0;left=0;bottom=0;right=0;pointerEvents=1;" vertex="1" parent="yT-1FrAaaAiXMkMa1nwL-125">
          <mxGeometry x="143" width="142" height="57" as="geometry">
            <mxRectangle width="142" height="57" as="alternateBounds" />
          </mxGeometry>
        </mxCell>
        <mxCell id="yT-1FrAaaAiXMkMa1nwL-128" value="" style="shape=tableRow;horizontal=0;startSize=0;swimlaneHead=0;swimlaneBody=0;strokeColor=inherit;top=0;left=0;bottom=0;right=0;collapsible=0;dropTarget=0;fillColor=none;points=[[0,0.5],[1,0.5]];portConstraint=eastwest;" vertex="1" parent="yT-1FrAaaAiXMkMa1nwL-124">
          <mxGeometry y="57" width="285" height="56" as="geometry" />
        </mxCell>
        <mxCell id="yT-1FrAaaAiXMkMa1nwL-129" value="MONTHLYREPORTS" style="shape=partialRectangle;html=1;whiteSpace=wrap;connectable=0;strokeColor=inherit;overflow=hidden;fillColor=none;top=0;left=0;bottom=0;right=0;pointerEvents=1;" vertex="1" parent="yT-1FrAaaAiXMkMa1nwL-128">
          <mxGeometry width="143" height="56" as="geometry">
            <mxRectangle width="143" height="56" as="alternateBounds" />
          </mxGeometry>
        </mxCell>
        <mxCell id="yT-1FrAaaAiXMkMa1nwL-130" value="int[]" style="shape=partialRectangle;html=1;whiteSpace=wrap;connectable=0;strokeColor=inherit;overflow=hidden;fillColor=none;top=0;left=0;bottom=0;right=0;pointerEvents=1;" vertex="1" parent="yT-1FrAaaAiXMkMa1nwL-128">
          <mxGeometry x="143" width="142" height="56" as="geometry">
            <mxRectangle width="142" height="56" as="alternateBounds" />
          </mxGeometry>
        </mxCell>
        <mxCell id="yT-1FrAaaAiXMkMa1nwL-131" value="" style="shape=tableRow;horizontal=0;startSize=0;swimlaneHead=0;swimlaneBody=0;strokeColor=inherit;top=0;left=0;bottom=0;right=0;collapsible=0;dropTarget=0;fillColor=none;points=[[0,0.5],[1,0.5]];portConstraint=eastwest;" vertex="1" parent="yT-1FrAaaAiXMkMa1nwL-124">
          <mxGeometry y="113" width="285" height="57" as="geometry" />
        </mxCell>
        <mxCell id="yT-1FrAaaAiXMkMa1nwL-132" value="ANNUALGROWTH" style="shape=partialRectangle;html=1;whiteSpace=wrap;connectable=0;strokeColor=inherit;overflow=hidden;fillColor=none;top=0;left=0;bottom=0;right=0;pointerEvents=1;" vertex="1" parent="yT-1FrAaaAiXMkMa1nwL-131">
          <mxGeometry width="143" height="57" as="geometry">
            <mxRectangle width="143" height="57" as="alternateBounds" />
          </mxGeometry>
        </mxCell>
        <mxCell id="yT-1FrAaaAiXMkMa1nwL-133" value="decimal" style="shape=partialRectangle;html=1;whiteSpace=wrap;connectable=0;strokeColor=inherit;overflow=hidden;fillColor=none;top=0;left=0;bottom=0;right=0;pointerEvents=1;" vertex="1" parent="yT-1FrAaaAiXMkMa1nwL-131">
          <mxGeometry x="143" width="142" height="57" as="geometry">
            <mxRectangle width="142" height="57" as="alternateBounds" />
          </mxGeometry>
        </mxCell>
        <mxCell id="yT-1FrAaaAiXMkMa1nwL-137" style="edgeStyle=orthogonalEdgeStyle;rounded=0;orthogonalLoop=1;jettySize=auto;html=1;exitX=1;exitY=0.5;exitDx=0;exitDy=0;entryX=0;entryY=0.5;entryDx=0;entryDy=0;" edge="1" parent="1" source="yT-1FrAaaAiXMkMa1nwL-134" target="yT-1FrAaaAiXMkMa1nwL-48">
          <mxGeometry relative="1" as="geometry" />
        </mxCell>
        <mxCell id="yT-1FrAaaAiXMkMa1nwL-138" style="edgeStyle=orthogonalEdgeStyle;rounded=0;orthogonalLoop=1;jettySize=auto;html=1;exitX=1;exitY=0.5;exitDx=0;exitDy=0;entryX=0;entryY=0.5;entryDx=0;entryDy=0;" edge="1" parent="1" source="yT-1FrAaaAiXMkMa1nwL-99" target="yT-1FrAaaAiXMkMa1nwL-48">
          <mxGeometry relative="1" as="geometry">
            <Array as="points">
              <mxPoint x="390" y="520" />
              <mxPoint x="390" y="80" />
            </Array>
          </mxGeometry>
        </mxCell>
        <mxCell id="yT-1FrAaaAiXMkMa1nwL-139" style="edgeStyle=orthogonalEdgeStyle;rounded=0;orthogonalLoop=1;jettySize=auto;html=1;exitX=1;exitY=0.5;exitDx=0;exitDy=0;entryX=1;entryY=0.5;entryDx=0;entryDy=0;" edge="1" parent="1" source="yT-1FrAaaAiXMkMa1nwL-128" target="yT-1FrAaaAiXMkMa1nwL-93">
          <mxGeometry relative="1" as="geometry" />
        </mxCell>
        <mxCell id="yT-1FrAaaAiXMkMa1nwL-140" style="edgeStyle=orthogonalEdgeStyle;rounded=0;orthogonalLoop=1;jettySize=auto;html=1;exitX=0;exitY=0.5;exitDx=0;exitDy=0;entryX=0;entryY=0.5;entryDx=0;entryDy=0;" edge="1" parent="1" source="yT-1FrAaaAiXMkMa1nwL-64" target="yT-1FrAaaAiXMkMa1nwL-48">
          <mxGeometry relative="1" as="geometry">
            <Array as="points">
              <mxPoint x="420" y="460" />
              <mxPoint x="420" y="80" />
            </Array>
          </mxGeometry>
        </mxCell>
      </root>
    </mxGraphModel>
  </diagram>
</mxfile>
